<?xml version="1.0" standalone="no"?>
<!DOCTYPE svg PUBLIC "-//W3C//DTD SVG 20010904//EN"
 "http://www.w3.org/TR/2001/REC-SVG-20010904/DTD/svg10.dtd">
<svg version="1.0" xmlns="http://www.w3.org/2000/svg"
 width="1821.000000pt" height="524.000000pt" viewBox="0 0 1821.000000 524.000000"
 preserveAspectRatio="xMidYMid meet">

<g transform="translate(0.000000,524.000000) scale(0.100000,-0.100000)"
fill="#000000" stroke="none">
<path d="M2226 5185 c-374 -116 -538 -192 -1221 -563 -507 -275 -855 -495
-926 -584 -35 -45 -39 -55 -39 -108 0 -58 0 -58 55 -108 70 -64 93 -72 496
-182 539 -147 821 -248 1019 -366 149 -89 233 -192 232 -285 -1 -53 -65 -239
-113 -326 -99 -181 -249 -354 -453 -523 -302 -252 -700 -508 -1066 -687 -85
-41 -167 -87 -182 -101 -38 -35 -38 -79 0 -115 43 -42 76 -36 178 31 49 32
195 121 324 197 487 286 790 508 1078 790 329 321 431 493 420 710 -7 133 -59
217 -208 334 -185 146 -367 226 -926 405 -199 64 -404 133 -455 154 -52 22
-124 52 -162 67 l-67 29 37 39 c99 101 409 287 808 484 422 208 880 360 1245
413 80 12 163 26 185 32 82 21 135 85 135 163 0 44 -18 80 -59 120 -27 25 -40
30 -94 32 -52 3 -90 -6 -241 -52z"/>
<path d="M3294 3321 c-49 -30 -76 -73 -152 -241 -124 -272 -171 -409 -245
-705 -77 -306 -117 -590 -117 -818 0 -173 10 -209 73 -264 42 -37 88 -48 159
-39 72 10 116 30 268 121 196 119 243 142 248 127 11 -34 89 -136 128 -168 87
-72 267 -101 421 -70 96 20 302 88 423 140 213 93 571 296 772 440 151 109
585 453 604 480 35 51 -9 126 -74 126 -30 0 -50 -15 -171 -132 -154 -149 -226
-210 -388 -326 -275 -197 -555 -339 -823 -418 -160 -48 -262 -64 -406 -64
-114 0 -128 2 -178 27 -47 23 -60 36 -88 87 -18 33 -52 80 -76 103 -37 38 -48
43 -87 43 -62 0 -94 -16 -205 -99 -118 -89 -396 -229 -416 -209 -25 25 -33
239 -14 368 46 307 234 756 472 1125 l103 160 0 67 c0 60 -3 70 -30 98 -16 18
-42 38 -57 46 -38 20 -107 17 -144 -5z"/>
<path d="M13940 3238 c-51 -14 -214 -126 -298 -204 -121 -111 -358 -381 -490
-556 -145 -193 -290 -474 -327 -632 -21 -86 -19 -192 4 -241 25 -55 99 -121
152 -135 96 -26 230 13 371 108 115 77 185 139 380 331 114 111 179 169 182
160 3 -8 17 -74 31 -148 30 -150 101 -368 147 -451 46 -82 131 -183 184 -218
83 -56 148 -75 254 -76 83 -1 107 3 190 32 275 95 569 278 1047 649 263 205
394 295 495 341 74 33 70 35 82 -33 3 -16 13 -111 21 -210 9 -99 21 -197 26
-219 16 -58 84 -126 134 -133 78 -10 135 23 288 167 169 159 246 222 360 294
120 75 180 96 273 96 99 0 135 -19 249 -134 105 -105 203 -248 277 -401 55
-116 91 -155 143 -155 25 0 40 8 64 35 42 48 40 78 -11 156 -22 35 -93 147
-156 249 -174 280 -240 357 -350 408 -82 37 -204 42 -301 13 -205 -62 -415
-172 -630 -330 -69 -50 -128 -91 -132 -91 -4 0 -12 39 -19 88 -36 264 -85 366
-185 393 -108 29 -186 -18 -770 -470 -450 -349 -719 -484 -1041 -524 -107 -14
-167 -7 -230 25 -51 27 -114 106 -154 191 -73 155 -99 308 -103 604 l-2 162
-29 30 c-33 35 -77 41 -113 16 -12 -8 -40 -50 -63 -92 -102 -190 -265 -356
-487 -495 -53 -34 -129 -76 -169 -94 -90 -42 -210 -72 -225 -57 -16 16 -12
174 7 229 23 68 89 197 137 269 54 80 331 357 484 483 152 126 241 185 365
245 110 53 139 84 146 156 6 68 -17 114 -74 151 -50 31 -76 35 -134 18z"/>
<path d="M8980 2993 c-26 -10 -60 -45 -184 -193 -273 -325 -402 -518 -597
-897 -94 -184 -103 -206 -107 -267 -7 -105 2 -132 63 -192 80 -77 140 -97 275
-91 161 7 309 63 550 209 201 122 352 231 508 366 l72 63 0 -78 c0 -43 -23
-253 -50 -468 -28 -214 -68 -538 -91 -720 -40 -330 -66 -515 -74 -523 -5 -5
-119 42 -247 101 -135 63 -293 173 -374 260 -92 99 -140 194 -156 307 -10 70
-16 90 -39 112 -40 41 -90 39 -135 -6 -28 -28 -34 -41 -34 -78 0 -185 220
-454 550 -675 236 -157 372 -223 460 -223 43 0 55 5 89 36 22 19 42 47 45 62
3 15 11 99 16 187 27 414 131 1186 222 1645 48 248 49 312 3 360 -25 26 -36
30 -70 28 -36 -3 -45 -9 -103 -83 -237 -300 -595 -541 -936 -629 -78 -21 -122
-26 -215 -26 -64 0 -122 4 -130 9 -18 12 -16 75 4 131 25 70 70 145 168 275
187 249 331 406 575 628 79 71 148 141 153 154 5 13 9 47 9 75 0 47 -3 54 -49
99 -46 47 -50 49 -102 48 -30 0 -61 -3 -69 -6z"/>
<path d="M7622 2836 c-42 -19 -520 -435 -672 -586 -188 -186 -640 -688 -809
-899 -131 -164 -163 -219 -169 -284 -3 -47 -1 -55 27 -81 27 -26 35 -28 81
-24 31 3 63 14 84 29 19 14 223 210 454 437 231 226 422 412 425 412 6 0 -45
-159 -102 -320 -23 -62 -41 -126 -41 -141 0 -15 12 -41 26 -58 20 -24 34 -31
63 -31 62 0 86 35 116 170 42 188 72 273 186 520 60 131 74 207 44 240 -10 11
-15 25 -12 32 2 7 40 35 83 62 247 155 396 259 414 289 42 68 18 168 -50 217
-38 27 -106 34 -148 16z m-767 -987 c-246 -246 -502 -485 -512 -475 -13 12
277 326 425 459 127 115 294 248 301 241 3 -3 -94 -104 -214 -225z m-525 -493
c0 -2 -8 -10 -17 -17 -16 -13 -17 -12 -4 4 13 16 21 21 21 13z"/>
<path d="M11995 2721 c-94 -38 -259 -118 -492 -239 -106 -54 -193 -96 -193
-93 0 15 -104 123 -145 151 -58 40 -127 56 -181 41 -58 -15 -134 -98 -163
-176 -35 -93 -242 -574 -357 -831 -93 -206 -104 -237 -104 -288 0 -54 3 -60
44 -103 40 -43 47 -47 102 -51 56 -4 63 -2 104 30 55 42 56 45 166 432 139
492 183 635 215 697 16 33 33 59 37 59 4 0 19 -18 32 -40 114 -187 140 -210
232 -210 76 0 89 7 348 186 117 81 242 162 279 181 l66 35 6 -29 c10 -38 29
-504 29 -681 l0 -144 29 -29 c43 -43 89 -40 131 8 31 35 32 39 26 100 -13 124
-6 399 14 594 24 232 25 329 6 368 -36 68 -115 79 -231 32z"/>
</g>
</svg>
